<svg
        xmlns="http://www.w3.org/2000/svg"
        xmlns:xlink="http://www.w3.org/1999/xlink"
        x="0px" y="0px" viewBox="0 0 93 16">
    <path fill-rule="evenodd"  opacity="0.8" fill="rgb(255, 255, 255)"
          d="M91.038,12.657 C91.038,11.703 91.038,10.797 91.038,9.894 C91.038,8.991 91.038,8.090 91.038,7.184 C90.970,7.171 90.906,7.155 90.838,7.146 C90.482,8.223 90.053,9.279 89.776,10.375 C89.544,11.310 88.899,11.080 88.293,11.137 C87.690,11.188 87.385,10.995 87.215,10.359 C86.908,9.247 86.493,8.173 85.958,7.110 C85.958,8.940 85.958,10.770 85.958,12.657 C85.257,12.657 84.634,12.657 83.941,12.657 C83.941,9.902 83.941,4.258 83.941,4.258 C83.941,4.258 86.148,4.259 86.763,4.259 C86.977,4.259 87.177,4.669 87.269,4.917 C87.708,6.102 88.082,7.301 88.557,8.710 C89.011,7.320 89.424,6.134 89.790,4.933 C89.933,4.463 90.136,4.266 90.648,4.263 C91.534,4.258 92.095,4.260 93.000,4.258 C93.000,7.080 93.000,9.843 93.000,12.657 C92.326,12.657 91.736,12.657 91.038,12.657 ZM79.881,13.745 C79.129,15.854 78.510,16.204 76.216,15.915 C76.216,15.381 76.216,14.843 76.216,14.216 C76.420,14.216 76.634,14.241 76.841,14.210 C77.705,14.069 78.071,13.459 77.773,12.592 C76.911,10.012 76.033,7.437 75.161,4.859 C75.111,4.709 74.967,4.236 74.967,4.236 C74.967,4.236 75.881,4.215 77.079,4.236 C77.251,4.238 77.470,4.629 77.549,4.864 C77.998,6.352 78.421,7.854 78.854,9.348 C78.925,9.585 79.024,9.818 79.173,10.242 C79.638,8.522 80.121,7.010 80.442,5.460 C80.651,4.410 81.126,4.166 82.119,4.222 C82.490,4.244 82.686,4.258 83.131,4.258 C82.838,5.145 82.582,5.889 82.318,6.668 C81.509,9.027 80.720,11.392 79.881,13.745 ZM69.216,11.903 C69.216,13.265 69.216,14.499 69.216,15.822 C68.442,15.822 67.793,15.822 66.988,15.822 C66.988,13.936 66.988,12.027 66.988,10.125 C66.988,8.207 66.988,6.291 66.988,4.260 C67.743,4.260 68.372,4.260 69.030,4.260 C69.070,4.527 69.104,4.775 69.138,5.040 C71.264,2.812 74.607,4.222 74.863,7.021 C74.967,8.099 74.967,9.010 74.730,10.296 C74.147,12.995 71.063,13.706 69.216,11.903 ZM72.600,7.300 C72.340,6.446 71.901,6.000 70.939,5.984 C69.966,5.970 69.386,6.518 69.278,7.397 C69.172,8.234 69.169,9.168 69.453,9.943 C69.621,10.400 70.456,10.908 70.957,10.911 C71.459,10.916 72.177,10.558 72.431,10.027 C72.645,9.579 72.781,9.040 72.795,8.522 C72.780,8.192 72.715,7.679 72.600,7.300 ZM63.208,13.745 C62.455,15.854 61.837,16.204 59.543,15.915 C59.543,15.381 59.543,14.843 59.543,14.216 C59.747,14.216 59.961,14.241 60.168,14.210 C61.032,14.069 61.398,13.459 61.100,12.592 C60.238,10.012 59.360,7.437 58.488,4.859 C58.438,4.709 58.294,4.236 58.294,4.236 C58.294,4.236 59.208,4.215 60.406,4.236 C60.578,4.238 60.797,4.629 60.875,4.864 C61.324,6.352 61.747,7.854 62.181,9.348 C62.252,9.585 62.350,9.818 62.500,10.242 C62.965,8.522 63.448,7.010 63.769,5.460 C63.978,4.410 64.453,4.166 65.446,4.222 C65.817,4.244 66.013,4.258 66.457,4.258 C66.165,5.145 65.908,5.889 65.645,6.668 C64.835,9.027 64.047,11.392 63.208,13.745 ZM54.176,3.050 C52.844,3.186 52.298,3.702 52.099,5.099 C52.624,4.872 53.136,4.546 53.695,4.437 C56.221,3.936 58.094,5.412 58.334,8.046 C58.579,10.694 56.900,12.813 54.484,12.893 C51.647,12.984 50.135,11.602 49.952,8.688 C49.890,7.750 49.890,6.801 49.944,5.863 C50.122,2.911 51.407,1.554 54.283,1.361 C55.096,1.307 55.693,1.243 55.503,0.156 C55.759,0.132 55.858,0.121 55.944,0.119 C56.604,0.097 57.164,-0.320 57.370,0.589 C57.561,1.390 57.078,2.432 56.326,2.678 C55.643,2.903 54.902,2.983 54.176,3.050 ZM54.072,10.986 C54.910,10.991 55.560,10.633 55.840,9.781 C55.976,9.358 56.035,8.904 56.072,8.722 C56.075,6.820 55.341,5.836 54.122,5.840 C52.920,5.848 52.130,6.882 52.144,8.442 C52.154,9.981 52.904,10.983 54.072,10.986 ZM46.724,9.238 C45.844,9.251 44.958,9.244 44.078,9.244 C44.104,7.523 44.431,7.167 45.924,7.167 C46.870,7.167 47.815,7.167 48.884,7.167 C48.819,7.458 48.798,7.619 48.748,7.771 C48.095,9.540 48.489,9.206 46.724,9.238 ZM40.703,9.871 C40.703,8.968 40.703,8.068 40.703,7.161 C40.635,7.148 40.571,7.132 40.503,7.124 C40.147,8.200 39.718,9.257 39.442,10.353 C39.209,11.287 38.564,11.058 37.958,11.114 C37.355,11.165 37.050,10.972 36.880,10.336 C36.573,9.225 36.158,8.151 35.623,7.087 C35.623,8.918 35.623,10.747 35.623,12.634 C34.922,12.634 34.299,12.634 33.606,12.634 C33.606,9.879 33.606,4.236 33.606,4.236 C33.606,4.236 35.813,4.236 36.428,4.236 C36.642,4.236 36.843,4.646 36.934,4.895 C37.373,6.079 37.747,7.279 38.222,8.687 C38.676,7.297 39.089,6.111 39.455,4.911 C39.599,4.441 39.801,4.243 40.313,4.240 C41.199,4.236 41.760,4.237 42.665,4.236 C42.665,7.057 42.665,9.820 42.665,12.634 C41.991,12.634 41.401,12.634 40.703,12.634 C40.703,11.680 40.703,10.774 40.703,9.871 ZM29.546,13.723 C28.794,15.831 28.175,16.181 25.881,15.893 C25.881,15.358 25.881,14.821 25.881,14.194 C26.085,14.194 26.300,14.218 26.506,14.188 C27.370,14.047 27.736,13.437 27.438,12.569 C26.576,9.990 25.699,7.414 24.826,4.836 C24.776,4.687 24.632,4.214 24.632,4.214 C24.632,4.214 25.546,4.192 26.745,4.213 C26.916,4.216 27.135,4.606 27.213,4.841 C27.662,6.330 28.085,7.831 28.519,9.325 C28.590,9.563 28.689,9.795 28.838,10.220 C29.303,8.499 29.786,6.987 30.107,5.437 C30.316,4.387 30.792,4.143 31.784,4.200 C32.155,4.221 32.351,4.236 32.796,4.236 C32.503,5.123 32.247,5.867 31.983,6.645 C31.173,9.005 30.385,11.369 29.546,13.723 ZM18.881,11.880 C18.881,13.242 18.881,14.476 18.881,15.799 C18.107,15.799 17.458,15.799 16.653,15.799 C16.653,13.913 16.653,12.005 16.653,10.102 C16.653,8.184 16.653,6.269 16.653,4.237 C17.408,4.237 18.037,4.237 18.695,4.237 C18.735,4.505 18.769,4.753 18.803,5.018 C20.929,2.789 24.272,4.200 24.528,6.998 C24.632,8.077 24.632,8.987 24.395,10.273 C23.812,12.973 20.727,13.683 18.881,11.880 ZM22.265,7.278 C22.005,6.423 21.566,5.977 20.605,5.961 C19.630,5.948 19.051,6.496 18.943,7.374 C18.837,8.211 18.834,9.145 19.118,9.921 C19.286,10.378 20.121,10.885 20.622,10.888 C21.124,10.894 21.842,10.536 22.096,10.005 C22.310,9.556 22.446,9.018 22.460,8.499 C22.445,8.170 22.380,7.656 22.265,7.278 ZM12.873,13.723 C12.120,15.831 11.502,16.181 9.208,15.893 C9.208,15.358 9.208,14.821 9.208,14.194 C9.412,14.194 9.626,14.218 9.833,14.188 C10.697,14.047 11.063,13.437 10.765,12.569 C9.903,9.990 9.025,7.414 8.153,4.836 C8.103,4.687 7.959,4.214 7.959,4.214 C7.959,4.214 8.873,4.192 10.071,4.213 C10.243,4.216 10.462,4.606 10.540,4.841 C10.989,6.330 11.412,7.831 11.846,9.325 C11.917,9.563 12.015,9.795 12.165,10.220 C12.630,8.499 13.113,6.987 13.434,5.437 C13.643,4.387 14.118,4.143 15.111,4.200 C15.482,4.221 15.678,4.236 16.122,4.236 C15.830,5.123 15.574,5.867 15.310,6.645 C14.500,9.005 13.712,11.369 12.873,13.723 ZM5.725,12.613 C4.837,12.613 4.116,12.613 3.312,12.613 C3.312,9.510 3.312,6.453 3.312,3.290 C2.170,3.290 1.109,3.290 -0.001,3.290 C-0.001,2.603 -0.001,2.029 -0.001,1.289 C0.318,1.289 0.650,1.289 0.982,1.289 C3.118,1.289 5.959,1.282 7.718,1.278 C8.467,1.277 8.974,2.900 9.043,3.226 C7.937,3.226 6.880,3.226 5.725,3.226 C5.725,6.395 5.725,9.473 5.725,12.613 Z"/>
</svg>