<?xml version="1.0" encoding="utf-8"?>
<!-- Generator: Adobe Illustrator 21.1.0, SVG Export Plug-In . SVG Version: 6.00 Build 0)  -->
<svg version="1.1" id="Layer_1" xmlns="http://www.w3.org/2000/svg" xmlns:xlink="http://www.w3.org/1999/xlink" x="0px" y="0px"
	 viewBox="0 0 2012 852" style="enable-background:new 0 0 2012 852;" xml:space="preserve">
<style type="text/css">
	.st0{fill:#E50004;}
	.st1{fill:#FBDD36;}
	.st2{fill-rule:evenodd;clip-rule:evenodd;fill:#E50004;}
</style>
<path class="st0" d="M429.2,184.3c-7-8.8-19.6-14.1-33.9-14.1h-95.7l1.2-14c0.7-7.3,1-11.8,13.1-11.8h118.7l4.7-53.8H270.6
	c-10.1,0-33.7,3.3-36.4,34.3l-12.8,146.6c-0.8,8.6,1.6,16.4,6.6,21.8c5,5.4,12.4,8.4,21,8.4h135.6c20.8,0,32.9-12.6,36.2-16.5
	c11.6-13.5,14.8-33.4,16.3-51.1C438.4,218.9,439,197,429.2,184.3 M366,232.1c-0.3,3.5-0.8,8.9-4.7,12.2C357,248,349.8,248,346,248
	h-39.8l-3,0c-3.5,0-6.3-0.1-7.8-1.8c-1.5-1.7-2-5.2-1.5-11.1l1.5-17.7h53.4c3.8,0,10.1,0,14.1,3.4
	C366.7,223.9,366.4,227.3,366,232.1"/>
<path class="st0" d="M623.7,114.3c-8.1-24-26.6-26-46.5-26c-31.7,0-42.3,9.1-50.9,25.9l-93.8,186.4l-0.6,1.3h73.2l20.2-43.1h74.2
	l12.7,43.1h73.1L623.7,114.3z M569.4,157.4c1.3-2.7,2-3.7,2.2-3.9c0.4,0.4,0.9,1.7,1.5,3.8l13.9,51.9h-40.6L569.4,157.4z"/>
<path class="st0" d="M889.4,149.3c1.3-14.9,1.8-31.8-8.4-43.7c-13-15-35.2-15-53.1-15H708.8l-4.7,53.8h93.4
	c12.3,0,16.1,0.5,18.3,1.4c4.1,2,4.7,5.4,4.2,10.5c-0.4,4-1.2,8.4-4.7,11.4c-3.9,3.4-11.2,3.7-18.3,3.7l-92.7,0l-4.1,47.2h91.3
	c11.7,0,17.6,0.2,20.8,2.5c4.4,3.1,4.6,7.9,4.2,11.8c-0.4,4.3-1.5,9.6-7,12.8c-3.4,1.8-8.3,2.3-21.1,2.3h-94.8l-4.7,53.8h116.8
	c1.8,0,3.7,0,5.8,0c2.3,0,4.7,0.1,7.2,0.1c15.4,0,32.9-1.1,45.4-9.5c17.2-11.5,21.1-31.7,22.5-47.9c1.1-12.8,1.6-24.2-3.4-34.3
	c-6.5-13-18.8-15.5-26.5-15.8c9.4-2.2,15.3-6.9,17.4-8.9C886.3,175.1,888.3,162.5,889.4,149.3"/>
<path class="st0" d="M1074.4,114.3c-8.1-24-26.6-26-46.5-26c-31.7,0-42.3,9.1-50.9,25.9l-93.8,186.4l-0.6,1.3h73.2l20.2-43.1h74.2
	l12.7,43.1h73.1L1074.4,114.3z M1020.1,157.4c1.3-2.7,2-3.7,2.2-3.9c0.3,0.3,0.8,1.3,1.5,3.8l13.9,51.9h-40.6L1020.1,157.4z"/>
<path class="st1" d="M972.7,304.1h71.2l20.2-43.1h75.4l12.7,43.1h71.2l-61.2-186.4c-7.8-23.4-25.6-25.4-45.7-25.4
	c-32.3,0-42.2,9.9-50.1,25.4L972.7,304.1z M1108,160.2c0.7-1.5,2.2-4.5,3.1-4.5c0.9,0,1.8,3,2.3,4.5l14.2,53h-43.1L1108,160.2"/>
<path class="st0" d="M1229.5,308.5H1149l-12.7-43.1H1067l-20.2,43.1h-81.1l97-192.8c9-17.6,20.7-27.8,54-27.8
	c20.4,0,41,2.2,49.8,28.4L1229.5,308.5z M1155.5,299.8h61.9l-59.3-180.7c-7-20.8-22.3-22.4-41.5-22.4c-31.9,0-39.5,10-46.2,23.1
	l-90.6,180.1h61.4l20.2-43.1h81.5L1155.5,299.8z M1133.3,217.5h-55.5l26.3-59.3c1.6-3.2,3.4-6.9,7-6.9c4.1,0,5.5,4.4,6.5,7.6l0,0.2
	L1133.3,217.5z M1091.2,208.8h30.7l-11.6-43.1L1091.2,208.8z"/>
<path class="st1" d="M1307.4,220.7h52.7c5.7,0,12.9,0,16.8,6c1.6,2.4,2.2,5.7,1.9,9c-0.4,4.2-2.6,9.9-5,12.3
	c-1.3,1.5-5.4,4.2-18.3,4.2h-35.9c-3.3,0-9.9,0-12.3-3c-1.3-1.8-1.9-5.4-1.3-12.6L1307.4,220.7z M1235.4,270.9
	c-0.7,8.1,1.2,17.4,5.7,23.3c8.4,10.5,21,9.9,30.3,9.9h109.5c18,0,33.5,0,48.3-14.7c14.1-13.8,15.2-30.5,16.4-44
	c1.1-12.9,2-26.3-8.1-37.1c-5-5.1-13.2-9.9-23.9-10.8l0.1-1.2c8.7-0.6,15.3-3.9,21.9-10.5c10.5-10.5,12.3-21.2,13.3-32.6
	c1.2-13.8,1.4-32.9-9.2-44.9c-10.9-12.6-29.3-13.8-44.3-13.8h-113.7c-9,0-18.9,4.5-24.6,10.5c-4.9,5.1-8.4,13.5-9.2,23.4
	L1235.4,270.9 M1311.4,175.2l1.5-17.1c0.3-3.3,0.3-6.3,3.5-9c2.9-2.4,5.6-2.4,8.9-2.4h38.6c4.5,0,11.1,0,14.9,4.2
	c1.6,2.1,2.9,5.1,2.5,9c-0.2,2.7-1.2,6.9-2.9,9.6c-4.1,5.7-11,5.7-16.6,5.7H1311.4"/>
<path class="st0" d="M1268.4,308.5c-8,0-21.5,0-30.7-11.5c-5-6.6-7.5-16.7-6.7-26.4l12.5-142.4c0.9-10.6,4.7-20.1,10.4-26
	c6.6-7,17.8-11.8,27.7-11.8h113.7c17,0,35.9,1.8,47.6,15.3c11.8,13.3,11.5,33.8,10.3,48.1c-1,11.5-3,23.7-14.6,35.3
	c-3.4,3.4-6.8,6-10.4,7.9c4.7,2.1,9,5,12.3,8.5c11.8,12.5,10.4,28.1,9.3,40.5l-0.1,0.9c-1.2,13.9-2.7,31.2-17.6,45.8
	c-16,15.9-33.2,15.9-51.3,15.9L1268.4,308.5z M1281.6,99c-7.4,0-16.4,3.8-21.4,9.1c-4.4,4.5-7.3,12.1-8.1,20.8l-12.5,142.4
	c-0.7,7.6,1.2,15.6,4.9,20.3c6,7.5,14.7,8.2,23.8,8.2l3,0h109.5c17.7,0,31.7,0,45.2-13.4c12.6-12.4,13.9-27.2,15.1-40.4l0.1-0.9
	c1.2-13.7,1.4-24.8-6.9-33.8c-2.4-2.5-9.4-8.4-21.1-9.4l-4.4-0.4l0.9-9.3l3.7-0.3c7.5-0.5,13.2-3.3,19.1-9.2
	c9.6-9.6,11.1-19.2,12.1-29.9c1.1-12.7,1.5-30.8-8.2-41.6c-9.4-10.8-25.2-12.3-41-12.3H1281.6z M1355.6,256.4h-35.9
	c-4.2,0-12,0-15.7-4.6c-2.3-3.1-3-7.7-2.3-15.7l1.7-19.9h56.7c6.1,0,15.2,0,20.5,7.9c2.1,3.1,3,7.3,2.6,11.8
	c-0.4,5.2-3.2,11.8-6.2,14.9C1373.8,254.5,1366.5,256.4,1355.6,256.4 M1311.4,225l-1,11.9c-0.7,7.8,0.3,9.4,0.5,9.6
	c0.2,0.3,1.8,1.2,8.8,1.2h35.9c12.5,0,15.1-2.7,15.1-2.7c1.6-1.6,3.6-6.3,3.9-9.7c0.2-2.4-0.2-4.7-1.2-6.2c-2.5-3.7-7-4-13.2-4
	H1311.4z M1361.7,179.5h-55l2-22.6c0.2-3.2,0.6-7.5,5-11.2c4.1-3.4,8.1-3.4,11.7-3.4h38.6c4.9,0,13,0,18.1,5.6l0.2,0.3
	c1.8,2.4,3.9,6.4,3.4,12c-0.3,3.2-1.4,8.1-3.6,11.6l-0.1,0.2C1376.5,179.5,1367.6,179.5,1361.7,179.5 M1316.2,170.8h45.5
	c6,0,10.5-0.3,13-3.8c1.2-1.9,2-5.2,2.2-7.5c0.2-2.2-0.3-4.2-1.5-5.8c-2.6-2.7-7.7-2.7-11.5-2.7h-38.6c-3.2,0-4.5,0.1-6.1,1.4
	c-1.5,1.2-1.6,2.3-1.8,5.1L1316.2,170.8z"/>
<polygon class="st1" points="1521.3,304.1 1535,146.7 1460.2,146.7 1464.8,94.7 1682.1,94.7 1677.5,146.7 1602.7,146.7 
	1588.9,304.1 "/>
<path class="st0" d="M1592.9,308.5h-76.4l13.8-157.4h-74.8l5.3-60.8h226l-5.3,60.8h-74.8L1592.9,308.5z M1526,299.8h58.8l13.8-157.4
	h74.8l3.8-43.3h-208.5l-3.8,43.3h74.8L1526,299.8z"/>
<path class="st1" d="M1803.5,92.3c-31.7,0-69.2,0.9-93.4,21.5c-24.6,20.9-28.7,57.5-31.1,85.6c-2.4,27.5-4.7,64.3,16.1,85.6
	c20.3,20.7,58.6,21.5,89.7,21.5c31.1,0,69.5-0.9,93.5-21.5c24.6-21.2,28.7-58,31.1-85.6c2.5-28.1,4.7-64.6-16.2-85.6
	C1872.5,93.2,1835.2,92.3,1803.5,92.3 M1748.3,199.4c1.5-17.4,2.8-28.7,11.3-39.8c10.2-13.8,22-15.3,39.3-15.3
	c17.7,0,28.6,1.5,36.7,15.3c7,11.7,5.9,21.6,4.3,39.8c-1.5,16.8-2.5,28.4-11.3,39.8c-10.5,13.8-21.7,15.3-39.3,15.3
	c-17.1,0-28.9-1.5-36.7-15.3C1746.6,228.7,1746.8,215.9,1748.3,199.4"/>
<path class="st0" d="M1784.7,310.9c-35.6,0-72-1.8-92.8-22.8c-23.1-23.5-19.5-64.5-17.4-89c2.1-24.5,5.8-65.6,32.7-88.5
	c26.5-22.6,68.5-22.6,96.3-22.6c27.9,0,70,0,92.8,22.8c23.2,23.2,19.6,64.4,17.4,89.1c-2.1,24.4-5.7,65.3-32.6,88.5
	C1856.8,309.2,1820.2,310.9,1784.7,310.9 M1803.5,96.6c-33.7,0-68.4,1.6-90.6,20.5c-22.3,19-26.9,51.3-29.6,82.6
	c-2,23-5.4,61.5,14.9,82.1c18.4,18.7,52.8,20.2,86.6,20.2c33.8,0,68.7-1.6,90.6-20.5c24.2-20.9,27.6-59.6,29.6-82.7
	c2.7-31.2,3.8-63.3-14.9-82.1C1871.4,98.2,1837,96.6,1803.5,96.6 M1789.3,258.8c-16.7,0-31.3-1.3-40.5-17.5
	c-6.9-12-6.2-26.9-4.8-42.3c1.6-18.3,3-30.2,12.1-42.1c11.6-15.7,25.7-17,42.8-17c17.7,0,30.9,1.2,40.4,17.4
	c7.5,12.4,6.6,23,5.1,40.5l-0.2,1.9c-1.5,17.3-2.6,29.7-12.2,42.1C1820.1,257.6,1806.8,258.8,1789.3,258.8 M1798.9,148.7
	c-17.9,0-27.3,2-35.8,13.5c-7.7,10.1-8.9,20.3-10.4,37.6c-1.5,17.2-1.4,28.3,3.7,37.3c6.3,11.2,15.3,13.1,32.9,13.1
	c18,0,27-1.9,35.9-13.5c8-10.4,9-21.2,10.4-37.5l0.2-1.9c1.5-16.8,2.2-25.2-3.9-35.3C1824.9,150,1816.1,148.7,1798.9,148.7"/>
<path class="st0" d="M1007.8,378.2c1.3-14.9,1.8-31.8-8.4-43.8c-13.1-15-35.2-15-53.1-15H827.2l-4.7,53.8h93.4
	c12.3,0,16.1,0.5,18.3,1.4c4.1,2,4.6,5.4,4.2,10.5c-0.4,4-1.2,8.4-4.6,11.4c-3.9,3.4-11.2,3.7-18.3,3.7l-92.7,0l-4.1,47.2H910
	c11.7,0,17.6,0.3,20.8,2.5c4.4,3.1,4.6,7.9,4.2,11.8c-0.4,4.3-1.5,9.6-7,12.8c-3.4,1.8-8.3,2.3-21,2.3h-94.8l-4.7,53.8h116.8
	c1.8,0,3.7,0,5.8,0c2.3,0,4.7,0.1,7.2,0.1c15.4,0,32.9-1.1,45.5-9.5c17.2-11.5,21.1-31.7,22.5-48c1.1-12.8,1.6-24.2-3.4-34.3
	c-6.5-12.9-18.8-15.5-26.5-15.8c9.3-2.2,15.2-6.9,17.4-8.9C1004.7,404,1006.7,391.4,1007.8,378.2"/>
<path class="st0" d="M1240.6,379.1c1.2-13.6,1.5-33.2-9.5-45.5c-10.7-12.4-28.7-14.1-44.9-14.1h-113.7c-8.9,0-19.3,4.4-25.2,10.7
	c-5.1,5.3-8.6,14-9.5,23.9l-12.5,142.5c-0.8,9,1.5,18.1,5.9,24c7.5,9.4,18.4,10.2,28,10.2h112.5c18.2,0,33.9,0,48.9-14.9
	c14-13.7,15.4-30.3,16.6-43.6l0.1-0.9c1-11.8,2.3-26.5-8.4-37.8c-5.5-5.7-13.3-9.5-21.9-10.7c7.6-1,13.8-4.3,19.9-10.5
	C1237.8,401.5,1239.6,390.4,1240.6,379.1 M1152.5,400h-49.3l1.5-16.9c0.2-2.9,0.4-5.3,3.1-7.6c2.7-2.2,5.1-2.2,8.3-2.2h38.6
	c4.2,0,10.7,0,14.2,3.9c1.3,1.6,2.7,4.4,2.3,8.4c-0.3,2.7-1.2,6.7-2.8,9.1C1164.6,400,1158.2,400,1152.5,400 M1168.8,461.3
	c-0.4,4-2.6,9.5-4.8,11.8c-1,1.2-4.8,3.9-17.7,3.9h-35.9c-3.1,0-9.5,0-11.6-2.6c-1.3-1.8-1.7-5.7-1.1-12l1.3-15.1h51.9
	c5.5,0,12.4,0,16.1,5.6C1168.4,455,1169.1,458,1168.8,461.3"/>
<polygon class="st0" points="1415.2,319.5 1364.1,407.6 1328.6,319.5 1251.2,319.5 1322.3,470.3 1282.9,530.8 1358.7,530.8 
	1490.1,320.8 1490.9,319.5 "/>
<polygon class="st0" points="1566.9,319.5 1497.5,319.5 1479.1,529.8 1479,530.8 1548.4,530.8 1566.8,320.4 "/>
<path class="st0" d="M1629.1,422.5c0.2-1.8,1.6-6.2,9.8-15l81.7-88h-82.6l-63.4,79.3c-3.3,4.1-11,14.6-11.8,23.8
	c-0.6,7,2.7,15.7,10.1,26.6l56.4,81.1l0.3,0.4h83.7l-74.8-90C1634.7,436.4,1628.5,429.2,1629.1,422.5"/>
<path class="st0" d="M1895.7,343.1c-8.1-24-26.6-26-46.5-26c-31.6,0-42.3,9.1-50.9,25.9l-93.8,186.4l-0.6,1.3h73.2l20.2-43.1h74.2
	l12.7,43.1h73.1L1895.7,343.1z M1841.4,386.3c1.3-2.7,2-3.7,2.2-3.9c0.4,0.4,0.9,1.7,1.5,3.8l13.9,51.9h-40.6L1841.4,386.3z"/>
<path class="st2" d="M807,526.1c6.2,80.4-41.5,133.5-136.9,133.5c-169.5-0.1-389.4-163.1-474.7-288.8
	c-73.3-108.2-80.2-204-31.7-255.4c-2.9,1.5-5.7,3.1-8.4,4.8l0.4-0.5l-0.8,0.4l-0.8,0.5l-0.7,0.4l-0.8,0.4l-0.7,0.5l-0.8,0.5
	l-0.7,0.5l-0.8,0.5l-16.8,13.2l-14,15.2l-11.1,17l-8.3,18.8l-5.6,20.3l-2.8,21.7l-0.2,22.9l4.9,38.4l-41.1,24.6L69.5,365l57.5,11.4
	l11,20.4l12.3,20.6l13.7,20.6l15.1,20.7l16.4,20.6l17.8,20.5l19.1,20.3l20.3,20l52.2,45l54.7,39.2l56.1,33l56.5,26.6l55.8,19.7
	l53.8,12.6l50.9,5.2l46.9-2.6l50.1,45.4l42.8-17.6l-16.8-56.9l18.5-16.1l14.7-18.7l10.9-21.1l4-12.9
	C814.4,594.6,815.5,562.4,807,526.1"/>
<polygon class="st2" points="527.3,721.4 518.9,718.7 510.4,715.8 501.8,712.6 493.2,709.2 484.6,705.5 476,701.6 449,697.1 
	421,689.5 392.4,679 363.4,665.7 334.5,649.8 306,631.2 278.2,610.2 251.6,586.9 234.1,569.5 218.1,551.8 203.8,533.8 190.9,515.9 
	179.7,497.9 170.1,480.2 162.3,462.6 156.1,445.4 156.1,466.1 159.7,488.1 166.8,511.2 177.3,535.1 191.1,559.5 208.3,584 
	228.6,608.4 252,632.3 289.4,664 328.9,690.6 369.2,712 409.2,727.6 447.8,737.1 483.9,740.2 516.4,736.6 544,725.9 535.7,723.8 "/>
<polygon class="st2" points="403.1,392.2 406.5,395.8 409.8,399.5 413.4,403.1 416.9,406.8 420.6,410.4 424.3,414 437.4,425.8 
	450.9,436.8 464.7,447.2 478.9,456.7 493.1,465.3 507.5,473.2 521.9,480.2 536.3,486.3 536.6,486 537,485.9 537.3,485.7 
	537.6,485.5 537.8,485.3 538.2,485.1 538.5,484.9 538.8,484.7 546,477.8 550.3,468.9 551.5,458.4 549.9,446.7 545.5,434.2 
	538.5,421.1 528.8,408 516.7,395.1 502.8,383.4 488.2,373.6 473.2,365.8 458.4,360.2 444.2,356.9 431,356.1 419.2,357.9 
	409.3,362.3 406.6,364.4 404.2,366.7 402.1,369.2 400.4,372 399,374.9 398,378 397.2,381.3 396.8,384.8 399.9,388.5 "/>
</svg>
