<svg
        xmlns="http://www.w3.org/2000/svg"
        xmlns:xlink="http://www.w3.org/1999/xlink"
        x="0px" y="0px" viewBox="0 0 18 16">
    <path fill-rule="evenodd"  fill="rgb(51, 51, 51)"
          d="M17.303,10.926 C16.980,11.332 16.643,11.417 16.417,11.417 L12.626,11.417 C12.752,12.050 12.726,12.996 12.140,14.280 C11.430,15.834 10.400,16.022 9.848,15.998 C9.006,15.958 8.317,15.406 8.137,14.895 C7.944,14.346 7.961,13.098 7.980,12.523 L6.316,9.491 L6.195,9.443 C6.112,9.897 5.782,10.632 5.154,10.632 L0.950,10.632 C0.260,10.632 0.002,9.777 0.002,9.238 L0.002,0.883 C0.002,0.676 0.071,-0.002 0.950,-0.002 L5.154,-0.002 C6.140,-0.002 6.217,0.676 6.217,0.883 L6.217,1.553 C6.874,1.213 7.837,0.782 8.510,0.782 L13.331,0.782 L13.987,0.782 L14.102,0.782 C14.120,0.782 14.138,0.786 14.155,0.788 C15.550,0.844 16.060,1.579 16.239,2.024 C16.593,2.903 17.824,7.968 17.968,8.561 C18.099,9.182 17.776,10.331 17.303,10.926 ZM5.016,1.219 L1.203,1.219 L1.203,9.238 C1.203,9.282 1.213,9.349 1.227,9.412 L4.952,9.412 C4.983,9.348 5.012,9.272 5.016,9.238 L5.016,1.219 ZM16.798,8.835 C16.425,7.298 15.399,3.161 15.128,2.487 C14.999,2.166 14.615,2.003 13.987,2.003 L13.331,2.003 L8.510,2.003 C8.027,2.003 6.904,2.539 6.217,2.940 L6.217,8.141 L7.155,8.514 L9.194,12.229 L9.186,12.402 C9.152,13.182 9.172,14.183 9.264,14.471 C9.325,14.568 9.620,14.792 9.976,14.778 C10.493,14.755 10.846,14.215 11.051,13.766 C11.850,12.014 11.310,11.265 11.299,11.249 L11.341,11.211 C11.247,11.103 11.188,10.962 11.188,10.807 C11.188,10.470 11.456,10.196 11.788,10.196 L16.340,10.196 C16.571,9.979 16.846,9.089 16.798,8.835 Z"/>
</svg>