<svg
        xmlns="http://www.w3.org/2000/svg" xmlns:xlink="http://www.w3.org/1999/xlink" x="0px" y="0px"
	 viewBox="0 0 43 43" style="enable-background:new 0 0 43 43;" xml:space="preserve">
<style type="text/css">
	.st0{fill:none;stroke:#3E6EB1;}
	.st1{fill:#3E6EB1;}
</style>
<path class="st0" d="M21.5,0.5c11.6,0,21,9.4,21,21s-9.4,21-21,21s-21-9.4-21-21S9.9,0.5,21.5,0.5z"/>
<path class="st1" d="M17.5,18.6h1.7v-1.7c0-0.8,0-1.9,0.6-2.6c0.6-0.8,1.3-1.3,2.7-1.3c2.2,0,3.1,0.3,3.1,0.3L25,15.9
	c0,0-0.7-0.2-1.4-0.2s-1.3,0.2-1.3,0.9v2h2.7l-0.2,2.5h-2.5V30h-3.2v-8.8h-1.7V18.6z"/>
</svg>
