<?xml version="1.0" encoding="utf-8"?>
<!-- Generator: Adobe Illustrator 21.1.0, SVG Export Plug-In . SVG Version: 6.00 Build 0)  -->
<svg version="1.1" id="Слой_1" xmlns="http://www.w3.org/2000/svg" xmlns:xlink="http://www.w3.org/1999/xlink" x="0px" y="0px"
	 viewBox="0 0 43 43" style="enable-background:new 0 0 43 43;" xml:space="preserve">
<style type="text/css">
	.st0{fill:none;stroke:#DC4E41;}
	.st1{fill:#DC4E41;}
</style>
<path class="st0" d="M21.5,0.5c11.6,0,21,9.4,21,21s-9.4,21-21,21s-21-9.4-21-21S9.9,0.5,21.5,0.5z"/>
<path class="st1" d="M30.5,22.5c0,0.7,0,1.3,0,2c-0.7,0-1.3,0-2,0c0-0.7,0-1.3,0-2c-0.7,0-1.3,0-2,0c0-0.7,0-1.3,0-2
	c0.7,0,1.3,0,2,0c0-0.7,0-1.3,0-2c0.7,0,1.3,0,2,0c0,0.7,0,1.3,0,2c0.7,0,1.3,0,2,0c0,0.7,0,1.3,0,2C31.8,22.5,31.2,22.5,30.5,22.5z
	 M14.9,28c-2.7-1-4.7-3.9-4.4-6.9c0.1-3.6,3.4-6.8,7-6.6c1.7-0.1,3.3,0.7,4.7,1.7c-0.6,0.6-1.1,1.3-1.8,1.8
	c-1.6-1.1-3.8-1.4-5.4-0.1c-2.3,1.6-2.4,5.3-0.2,7c2.1,1.9,6.1,1,6.7-2c-1.3,0-2.7,0-4,0c0-0.8,0-1.6,0-2.4c2.2,0,4.5,0,6.7,0
	c0.1,1.9-0.1,3.9-1.3,5.4C21.2,28.4,17.7,29.1,14.9,28z"/>
</svg>
