<?xml version="1.0" encoding="utf-8"?>
<!-- Generator: Adobe Illustrator 21.1.0, SVG Export Plug-In . SVG Version: 6.00 Build 0)  -->
<svg version="1.1" id="Слой_1" xmlns="http://www.w3.org/2000/svg" xmlns:xlink="http://www.w3.org/1999/xlink" x="0px" y="0px"
	 viewBox="0 0 43 43" style="enable-background:new 0 0 43 43;" xml:space="preserve">
<style type="text/css">
	.st0{fill:none;stroke:url(#SVGID_1_);}
	.st1{fill:#85B8FC;}
	.st2{fill:url(#SVGID_2_);}
</style>
<linearGradient id="SVGID_1_" gradientUnits="userSpaceOnUse" x1="0" y1="21.5" x2="43" y2="21.5">
	<stop  offset="0" style="stop-color:#FA9D3E"/>
	<stop  offset="0.34" style="stop-color:#F05E47"/>
	<stop  offset="0.73" style="stop-color:#DD2D73"/>
	<stop  offset="1" style="stop-color:#AE32A7"/>
</linearGradient>
<path class="st0" d="M21.5,0.5c11.6,0,21,9.4,21,21s-9.4,21-21,21s-21-9.4-21-21S9.9,0.5,21.5,0.5z"/>
<path class="st1" d="M29.9,25c0,0.9-0.2,1.5-0.4,2.1c-0.2,0.6-0.5,1-1,1.5c-0.5,0.5-0.9,0.8-1.5,1c-0.5,0.2-1.2,0.4-2.1,0.4
	c-0.9,0-1.2,0.1-3.5,0.1c-2.3,0-2.6,0-3.5-0.1c-0.9,0-1.5-0.2-2.1-0.4c-0.6-0.2-1-0.5-1.5-1c-0.5-0.5-0.8-0.9-1-1.5
	c-0.2-0.5-0.4-1.2-0.4-2.1c0-0.9-0.1-1.2-0.1-3.5c0-2.3,0-2.6,0.1-3.5c0-0.9,0.2-1.5,0.4-2.1c0.2-0.6,0.5-1,1-1.5
	c0.5-0.5,0.9-0.8,1.5-1c0.5-0.2,1.2-0.4,2.1-0.4c0.9,0,1.2-0.1,3.5-0.1c2.3,0,2.6,0,3.5,0.1c0.9,0,1.5,0.2,2.1,0.4
	c0.6,0.2,1,0.5,1.5,1c0.5,0.5,0.8,0.9,1,1.5c0.2,0.5,0.4,1.2,0.4,2.1c0,0.9,0.1,1.2,0.1,3.5C30,23.8,30,24.1,29.9,25z M28.4,18.1
	c0-0.8-0.2-1.3-0.3-1.6c-0.2-0.4-0.3-0.7-0.6-1c-0.3-0.3-0.6-0.5-1-0.6c-0.3-0.1-0.8-0.3-1.6-0.3c-0.9,0-1.2-0.1-3.4-0.1
	s-2.5,0-3.4,0.1c-0.8,0-1.3,0.2-1.6,0.3c-0.4,0.2-0.7,0.3-1,0.6c-0.3,0.3-0.5,0.6-0.6,1c-0.1,0.3-0.3,0.7-0.3,1.6
	c0,0.9-0.1,1.2-0.1,3.4c0,2.3,0,2.5,0.1,3.4c0,0.8,0.2,1.3,0.3,1.6c0.2,0.4,0.3,0.7,0.6,1c0.3,0.3,0.6,0.5,1,0.6
	c0.3,0.1,0.7,0.3,1.6,0.3c0.9,0,1.2,0,3.4,0s2.5,0,3.4,0c0.8,0,1.3-0.2,1.6-0.3c0.4-0.2,0.7-0.3,1-0.6c0.3-0.3,0.5-0.6,0.6-1
	c0.1-0.3,0.3-0.8,0.3-1.6c0-0.9,0-1.2,0-3.4C28.5,19.2,28.5,19,28.4,18.1z M26,18c-0.6,0-1-0.5-1-1c0-0.6,0.5-1,1-1c0.6,0,1,0.5,1,1
	C27.1,17.5,26.6,18,26,18z M21.5,25.9c-2.4,0-4.4-2-4.4-4.4s2-4.4,4.4-4.4s4.4,2,4.4,4.4S23.9,25.9,21.5,25.9z M21.5,18.7
	c-1.6,0-2.8,1.3-2.8,2.8s1.3,2.8,2.8,2.8c1.6,0,2.8-1.3,2.8-2.8S23.1,18.7,21.5,18.7z"/>
<linearGradient id="SVGID_2_" gradientUnits="userSpaceOnUse" x1="-374.6023" y1="301.3777" x2="-373.9595" y2="302.1437" gradientTransform="matrix(17 0 0 -17 6384 5151.7598)">
	<stop  offset="0" style="stop-color:#FA9D3E"/>
	<stop  offset="0.34" style="stop-color:#F05E47"/>
	<stop  offset="0.73" style="stop-color:#DD2D73"/>
	<stop  offset="1" style="stop-color:#AE32A7"/>
</linearGradient>
<path class="st2" d="M29.9,25c0,0.9-0.2,1.5-0.4,2.1c-0.2,0.6-0.5,1-1,1.5c-0.5,0.5-0.9,0.8-1.5,1c-0.5,0.2-1.2,0.4-2.1,0.4
	c-0.9,0-1.2,0.1-3.5,0.1c-2.3,0-2.6,0-3.5-0.1c-0.9,0-1.5-0.2-2.1-0.4c-0.6-0.2-1-0.5-1.5-1c-0.5-0.5-0.8-0.9-1-1.5
	c-0.2-0.5-0.4-1.2-0.4-2.1c0-0.9-0.1-1.2-0.1-3.5c0-2.3,0-2.6,0.1-3.5c0-0.9,0.2-1.5,0.4-2.1c0.2-0.6,0.5-1,1-1.5
	c0.5-0.5,0.9-0.8,1.5-1c0.5-0.2,1.2-0.4,2.1-0.4c0.9,0,1.2-0.1,3.5-0.1c2.3,0,2.6,0,3.5,0.1c0.9,0,1.5,0.2,2.1,0.4
	c0.6,0.2,1,0.5,1.5,1c0.5,0.5,0.8,0.9,1,1.5c0.2,0.5,0.4,1.2,0.4,2.1c0,0.9,0.1,1.2,0.1,3.5C30,23.8,30,24.1,29.9,25z M28.4,18.1
	c0-0.8-0.2-1.3-0.3-1.6c-0.2-0.4-0.3-0.7-0.6-1c-0.3-0.3-0.6-0.5-1-0.6c-0.3-0.1-0.8-0.3-1.6-0.3c-0.9,0-1.2-0.1-3.4-0.1
	s-2.5,0-3.4,0.1c-0.8,0-1.3,0.2-1.6,0.3c-0.4,0.2-0.7,0.3-1,0.6c-0.3,0.3-0.5,0.6-0.6,1c-0.1,0.3-0.3,0.7-0.3,1.6
	c0,0.9-0.1,1.2-0.1,3.4c0,2.3,0,2.5,0.1,3.4c0,0.8,0.2,1.3,0.3,1.6c0.2,0.4,0.3,0.7,0.6,1c0.3,0.3,0.6,0.5,1,0.6
	c0.3,0.1,0.7,0.3,1.6,0.3c0.9,0,1.2,0,3.4,0s2.5,0,3.4,0c0.8,0,1.3-0.2,1.6-0.3c0.4-0.2,0.7-0.3,1-0.6c0.3-0.3,0.5-0.6,0.6-1
	c0.1-0.3,0.3-0.8,0.3-1.6c0-0.9,0-1.2,0-3.4C28.5,19.2,28.5,19,28.4,18.1z M26,18c-0.6,0-1-0.5-1-1c0-0.6,0.5-1,1-1c0.6,0,1,0.5,1,1
	C27.1,17.5,26.6,18,26,18z M21.5,25.9c-2.4,0-4.4-2-4.4-4.4s2-4.4,4.4-4.4s4.4,2,4.4,4.4S23.9,25.9,21.5,25.9z M21.5,18.7
	c-1.6,0-2.8,1.3-2.8,2.8s1.3,2.8,2.8,2.8c1.6,0,2.8-1.3,2.8-2.8S23.1,18.7,21.5,18.7z"/>
</svg>
