<?xml version="1.0" encoding="utf-8"?>
<!-- Generator: Adobe Illustrator 21.1.0, SVG Export Plug-In . SVG Version: 6.00 Build 0)  -->
<svg version="1.1" id="Слой_1" xmlns="http://www.w3.org/2000/svg" xmlns:xlink="http://www.w3.org/1999/xlink" x="0px" y="0px"
	 viewBox="0 0 31 31" style="enable-background:new 0 0 31 31;" xml:space="preserve">
<style type="text/css">
	.st0{fill:#FB2539;}
</style>
<path class="st0" d="M15.5,27C9.2,27,4,21.8,4,15.5S9.2,4,15.5,4S27,9.2,27,15.5S21.8,27,15.5,27z M15.5,5.3
	C9.9,5.3,5.3,9.9,5.3,15.5s4.6,10.2,10.2,10.2s10.2-4.6,10.2-10.2S21.1,5.3,15.5,5.3z M12.4,10.6l8.5,4.9l-8.5,4.9V10.6z M13.7,18.1
	l4.5-2.6l-4.5-2.6C13.7,12.9,13.7,18.1,13.7,18.1z"/>
</svg>
