<svg
        xmlns="http://www.w3.org/2000/svg"
        xmlns:xlink="http://www.w3.org/1999/xlink"
        x="0px" y="0px" viewBox="0 0 12 11">
    <path fill-rule="evenodd"  fill="rgb(119, 119, 119)"
          d="M10.202,0.001 L1.796,0.001 C0.807,0.002 0.001,0.818 -0.000,1.819 L-0.000,7.242 C0.001,8.243 0.807,9.059 1.796,9.060 L6.426,9.060 L8.085,10.742 C8.249,10.906 8.467,10.997 8.697,10.998 L8.699,10.998 C9.179,10.998 9.570,10.603 9.571,10.118 L9.571,9.060 L10.204,9.060 C11.193,9.059 11.999,8.243 12.000,7.242 L12.000,1.819 C11.999,0.816 11.192,0.001 10.202,0.001 ZM1.126,7.242 L1.126,1.819 C1.127,1.447 1.428,1.142 1.796,1.141 L10.204,1.141 C10.572,1.142 10.872,1.447 10.873,1.819 L10.879,1.969 L10.879,7.241 C10.879,7.615 10.578,7.919 10.210,7.919 L9.014,7.919 C8.703,7.919 8.450,8.176 8.450,8.490 L8.450,9.495 L7.062,8.088 C6.957,7.981 6.811,7.919 6.662,7.919 L1.796,7.919 C1.428,7.919 1.127,7.615 1.126,7.242 ZM8.699,10.838 L8.699,10.838 L8.699,10.838 L8.699,10.838 Z"/>
</svg>