<?xml version="1.0" encoding="utf-8"?>
<!-- Generator: Adobe Illustrator 21.1.0, SVG Export Plug-In . SVG Version: 6.00 Build 0)  -->
<svg version="1.1" id="Слой_1" xmlns="http://www.w3.org/2000/svg" xmlns:xlink="http://www.w3.org/1999/xlink" x="0px" y="0px"
	 viewBox="0 0 43 43" style="enable-background:new 0 0 43 43;" xml:space="preserve">
<style type="text/css">
	.st0{fill:none;stroke:#00ACEC;}
	.st1{fill:#00ACEC;}
</style>
<path class="st0" d="M21.5,0.5c11.6,0,21,9.4,21,21s-9.4,21-21,21s-21-9.4-21-21S9.9,0.5,21.5,0.5z"/>
<path class="st1" d="M30,16.5c-0.6,0.3-1.3,0.4-2,0.5c0.7-0.4,1.3-1,1.5-1.8c-0.7,0.4-1.4,0.6-2.2,0.8c-0.6-0.6-1.5-1-2.5-1
	c-1.9,0-3.5,1.5-3.5,3.3c0,0.3,0,0.5,0.1,0.7c-2.9-0.1-5.5-1.4-7.2-3.4c-0.3,0.5-0.5,1.1-0.5,1.7c0,1.1,0.6,2.1,1.6,2.7
	c-0.6,0-1.1-0.2-1.6-0.4v0c0,1.6,1.2,2.9,2.8,3.2c-0.3,0.1-0.6,0.1-0.9,0.1c-0.2,0-0.4,0-0.7-0.1c0.4,1.3,1.7,2.3,3.3,2.3
	c-1.2,0.9-2.7,1.4-4.3,1.4c-0.3,0-0.6,0-0.8,0c1.5,0.9,3.4,1.5,5.3,1.5c6.4,0,9.9-5,9.9-9.3c0-0.1,0-0.3,0-0.4
	C28.9,17.8,29.5,17.2,30,16.5"/>
</svg>
