<?xml version="1.0" encoding="utf-8"?>
<!-- Generator: Adobe Illustrator 21.1.0, SVG Export Plug-In . SVG Version: 6.00 Build 0)  -->
<svg version="1.1" id="Слой_1" xmlns="http://www.w3.org/2000/svg" xmlns:xlink="http://www.w3.org/1999/xlink" x="0px" y="0px"
	 viewBox="0 0 43 43" style="enable-background:new 0 0 43 43;" xml:space="preserve">
<style type="text/css">
	.st0{fill:none;stroke:#4C76A6;}
	.st1{fill:#4C76A6;}
</style>
<path class="st0" d="M21.5,0.5c11.6,0,21,9.4,21,21s-9.4,21-21,21s-21-9.4-21-21S9.9,0.5,21.5,0.5z"/>
<path class="st1" d="M28.5,23.7c0,0,1.5,1.5,1.8,2.2c0,0,0,0,0,0c0.1,0.3,0.2,0.5,0.1,0.6c-0.1,0.3-0.5,0.4-0.7,0.4c0,0-2.5,0-2.6,0
	c-0.2,0-0.6,0-1-0.4c-0.3-0.3-0.7-0.7-1-1.1c-0.5-0.6-0.9-1.2-1.4-1.2c-0.1,0-0.1,0-0.2,0c-0.3,0.1-0.8,0.6-0.8,2
	c0,0.4-0.3,0.7-0.5,0.7c0,0-1.1,0-1.2,0c-0.4,0-2.5-0.1-4.3-2.2c-2.3-2.6-4.3-7.7-4.3-7.7c-0.1-0.3,0.1-0.5,0.4-0.5h2.6
	c0.3,0,0.5,0.2,0.5,0.4c0.1,0.2,0.4,1.2,1,2.2c0.9,1.7,1.5,2.4,1.9,2.4c0.1,0,0.2,0,0.2-0.1c0.6-0.3,0.5-2.6,0.4-3
	c0-0.1,0-1-0.3-1.4c-0.2-0.3-0.6-0.4-0.8-0.5c0.1-0.1,0.2-0.2,0.3-0.3C19.3,16,20,16,20.7,16h0.4c0.8,0,1,0.1,1.3,0.1
	c0.6,0.1,0.6,0.5,0.5,1.9c0,0.4,0,0.8,0,1.3c0,0.1,0,0.2,0,0.3c0,0.7,0,1.5,0.4,1.8c0.1,0,0.1,0.1,0.2,0.1c0.2,0,0.6,0,1.9-2.3
	c0.6-1,1-2.2,1-2.3c0-0.1,0.1-0.2,0.2-0.3c0.1,0,0.2-0.1,0.2-0.1h3.1c0.3,0,0.6,0.1,0.6,0.2c0.1,0.2,0,0.9-1.4,2.9
	c-0.2,0.3-0.4,0.6-0.6,0.9C27.2,22.3,27.2,22.4,28.5,23.7L28.5,23.7z"/>
</svg>
