<?xml version="1.0" encoding="utf-8"?>
<!-- Generator: Adobe Illustrator 21.1.0, SVG Export Plug-In . SVG Version: 6.00 Build 0)  -->
<svg version="1.1" id="Слой_1" xmlns="http://www.w3.org/2000/svg" xmlns:xlink="http://www.w3.org/1999/xlink" x="0px" y="0px"
	 viewBox="0 0 43 43" style="enable-background:new 0 0 43 43;" xml:space="preserve">
<style type="text/css">
	.st0{fill:none;stroke:#E35358;}
	.st1{fill:#E35358;}
</style>
<path class="st0" d="M21.5,0.5c11.6,0,21,9.4,21,21s-9.4,21-21,21s-21-9.4-21-21S9.9,0.5,21.5,0.5z"/>
<path class="st1" d="M21.5,15c-8.4,0-8.5,0.7-8.5,6.5s0.1,6.5,8.5,6.5s8.5-0.7,8.5-6.5S29.9,15,21.5,15L21.5,15z M24.2,21.8
	l-3.8,1.8c-0.3,0.2-0.6,0-0.6-0.4v-3.3c0-0.4,0.3-0.5,0.6-0.4l3.8,1.8C24.6,21.4,24.6,21.6,24.2,21.8z"/>
</svg>
